# xmcd
#
# Track frame offsets:
#	182
#	14960
#	33825
#	52912
#	65262
#	80690
#	98732
#	110417
#	126205
#	140397
#	160885
#	181205
#	201465
#	214797
#	238202
#	248387
#	268900
#	284350
#	297935
#	310812
#	319920
#	330882
#
# Disc length: 4696 seconds
#
# Revision: 1
# Processed by: cddbd v1.5.1PL0 Copyright (c) Steve Scherf et al.
# Submitted via: audiograbber 1.83.01
#
DISCID=44125616
DTITLE=Lena Martell - The Best Of Lena Martell
DYEAR=1996
DGENRE=Country
TTITLE0=One Day At A Time
TTITLE1=Movin' On
TTITLE2=Until It's Time For You To Go
TTITLE3=Pledging My Love
TTITLE4=Love Letters
TTITLE5=The First Time Ever I Saw Youre Face
TTITLE6=Make The World Go Away
TTITLE7=Running Bear
TTITLE8=Call Collect
TTITLE9=The Old Rugged Cross
TTITLE10=Danny Come Home
TTITLE11=Six Weeks Every Summer
TTITLE12=Stay Away From The Apple Tree
TTITLE13=Everybody Get Together
TTITLE14=Hillbilly Hoedown
TTITLE15=Feelings
TTITLE16=The Call
TTITLE17=Four And Twenty Hours
TTITLE18=Forever In Blue Jeans
TTITLE19=I'm Gonna Be A Country Girl Again
TTITLE20=Help Me Make It Through The Night
TTITLE21=I'll Never Fall In Love Again
EXTD=
EXTT0=
EXTT1=
EXTT2=
EXTT3=
EXTT4=
EXTT5=
EXTT6=
EXTT7=
EXTT8=
EXTT9=
EXTT10=
EXTT11=
EXTT12=
EXTT13=
EXTT14=
EXTT15=
EXTT16=
EXTT17=
EXTT18=
EXTT19=
EXTT20=
EXTT21=
PLAYORDER=
